<svg xmlns="http://www.w3.org/2000/svg" width="430" height="477" viewBox="0 0 430 477" version="1.1">
	<path d="M 200 3.040 C 174.844 7.859, 163.531 11.582, 145 21.138 C 128.245 29.779, 116.309 38.670, 101.105 53.836 C 93.738 61.185, 87.936 66.591, 88.213 65.849 C 93.191 52.483, 95.099 46.766, 94.709 46.376 C 93.764 45.431, 65.630 73.636, 57.729 83.450 C 27.526 120.968, 8.023 166.272, 1.959 213 C 0.221 226.391, 0.441 254.114, 2.396 268.058 C 9.027 315.366, 27.905 354.066, 64.911 396.221 C 83.012 416.839, 104.955 435.047, 129 449.401 C 150.771 462.397, 158.434 465.588, 182.141 471.535 C 193.862 474.476, 203.577 476.757, 203.729 476.604 C 203.881 476.452, 200.292 473.373, 195.753 469.762 C 191.214 466.151, 186.150 461.758, 184.500 459.999 L 181.500 456.802 185.500 458.496 C 207.068 467.629, 221.982 471.607, 239.629 472.933 C 253.914 474.006, 276.864 472.796, 296.427 469.938 C 311.686 467.708, 330.307 463.973, 329.614 463.281 C 329.375 463.042, 323.852 461.513, 317.340 459.884 C 301.476 455.914, 292.189 453.115, 291.573 452.118 C 291.294 451.666, 292.963 450.736, 295.283 450.050 C 302.260 447.988, 319.781 440.264, 331.904 433.906 C 356.251 421.137, 366.227 412.870, 393.931 382.500 C 412.916 361.688, 430.138 341.805, 429.625 341.291 C 429.388 341.055, 424.763 344.223, 419.347 348.331 C 387.959 372.140, 343.804 393.035, 308.100 400.975 C 282.964 406.565, 248.979 405.656, 228 398.834 C 203.226 390.778, 183.370 372.846, 171.545 347.852 C 163.863 331.613, 162.492 325.158, 162.551 305.500 C 162.597 290.149, 162.843 287.772, 165.088 281 L 167.575 273.500 171.537 273.157 C 178.218 272.579, 202.808 275.033, 210.786 277.073 C 214.934 278.134, 220.616 280.464, 223.411 282.251 C 229.967 286.441, 245.168 298.491, 261.155 312.171 C 268.116 318.127, 274.098 323, 274.448 323 C 275.822 323, 284.099 304.069, 285.995 296.590 C 288.821 285.441, 288.582 276.518, 285.086 262.674 C 281.247 247.476, 275.721 236.809, 267.967 229.630 L 262.148 224.243 260.616 215.361 C 257.074 194.840, 252.549 185.850, 241.226 176.835 C 220.435 160.285, 208.282 154.549, 169.637 143.049 C 152.663 137.998, 137.710 133.460, 136.409 132.965 L 134.043 132.066 136.089 127.294 C 138.820 120.921, 147.643 107.841, 153.964 100.793 C 160.581 93.417, 173.260 83.894, 182.890 79.068 C 191.237 74.886, 215.802 66.573, 231.500 62.618 C 254.667 56.782, 281.875 53.444, 297 54.582 C 301.675 54.933, 317.826 57.433, 332.890 60.137 C 347.955 62.841, 360.456 64.877, 360.671 64.662 C 362.036 63.297, 306.932 40.190, 289 34.608 C 269.509 28.540, 236.762 24.265, 218 25.340 C 207.987 25.913, 192.225 28.209, 188.509 29.635 C 187.048 30.196, 186.933 29.997, 187.795 28.402 C 190.005 24.310, 208.005 7.037, 213.107 4.111 L 218.500 1.019 214 1.119 C 211.525 1.174, 205.225 2.039, 200 3.040 M 204.500 199.575 C 205.600 200.406, 211.153 205.229, 216.840 210.293 C 222.528 215.357, 228.940 220.558, 231.090 221.852 C 234.820 224.095, 235 224.114, 235 222.261 C 235 218.666, 228.897 208.068, 224.815 204.574 C 219.985 200.439, 213.338 197.988, 207.072 198.032 C 202.775 198.062, 202.620 198.154, 204.500 199.575" stroke="none" fill="#0a182e" fill-rule="evenodd"/>
</svg>